<svg width="500" height="315" viewBox="0 0 500 315" fill="none" xmlns="http://www.w3.org/2000/svg">
<rect width="500" height="314.397" fill="#0A1932"/>
<path d="M36.0312 39.5098H33.8691L33.8574 38.6016H35.8203C36.1445 38.6016 36.4277 38.5469 36.6699 38.4375C36.9121 38.3281 37.0996 38.1719 37.2324 37.9688C37.3691 37.7617 37.4375 37.5156 37.4375 37.2305C37.4375 36.918 37.377 36.6641 37.2559 36.4688C37.1387 36.2695 36.957 36.125 36.7109 36.0352C36.4688 35.9414 36.1602 35.8945 35.7852 35.8945H34.1211V43.5H32.9902V34.9688H35.7852C36.2227 34.9688 36.6133 35.0137 36.957 35.1035C37.3008 35.1895 37.5918 35.3262 37.8301 35.5137C38.0723 35.6973 38.2559 35.9316 38.3809 36.2168C38.5059 36.502 38.5684 36.8438 38.5684 37.2422C38.5684 37.5938 38.4785 37.9121 38.2988 38.1973C38.1191 38.4785 37.8691 38.709 37.5488 38.8887C37.2324 39.0684 36.8613 39.1836 36.4355 39.2344L36.0312 39.5098ZM35.9785 43.5H33.4238L34.0625 42.5801H35.9785C36.3379 42.5801 36.6426 42.5176 36.8926 42.3926C37.1465 42.2676 37.3398 42.0918 37.4727 41.8652C37.6055 41.6348 37.6719 41.3633 37.6719 41.0508C37.6719 40.7344 37.6152 40.4609 37.502 40.2305C37.3887 40 37.2109 39.8223 36.9688 39.6973C36.7266 39.5723 36.4141 39.5098 36.0312 39.5098H34.4199L34.4316 38.6016H36.6348L36.875 38.9297C37.2852 38.9648 37.6328 39.082 37.918 39.2812C38.2031 39.4766 38.4199 39.7266 38.5684 40.0312C38.7207 40.3359 38.7969 40.6719 38.7969 41.0391C38.7969 41.5703 38.6797 42.0195 38.4453 42.3867C38.2148 42.75 37.8887 43.0273 37.4668 43.2188C37.0449 43.4062 36.5488 43.5 35.9785 43.5ZM42.9336 43.6172C42.4922 43.6172 42.0918 43.543 41.7324 43.3945C41.377 43.2422 41.0703 43.0293 40.8125 42.7559C40.5586 42.4824 40.3633 42.1582 40.2266 41.7832C40.0898 41.4082 40.0215 40.998 40.0215 40.5527V40.3066C40.0215 39.791 40.0977 39.332 40.25 38.9297C40.4023 38.5234 40.6094 38.1797 40.8711 37.8984C41.1328 37.6172 41.4297 37.4043 41.7617 37.2598C42.0938 37.1152 42.4375 37.043 42.793 37.043C43.2461 37.043 43.6367 37.1211 43.9648 37.2773C44.2969 37.4336 44.5684 37.6523 44.7793 37.9336C44.9902 38.2109 45.1465 38.5391 45.248 38.918C45.3496 39.293 45.4004 39.7031 45.4004 40.1484V40.6348H40.666V39.75H44.3164V39.668C44.3008 39.3867 44.2422 39.1133 44.1406 38.8477C44.043 38.582 43.8867 38.3633 43.6719 38.1914C43.457 38.0195 43.1641 37.9336 42.793 37.9336C42.5469 37.9336 42.3203 37.9863 42.1133 38.0918C41.9062 38.1934 41.7285 38.3457 41.5801 38.5488C41.4316 38.752 41.3164 39 41.2344 39.293C41.1523 39.5859 41.1113 39.9238 41.1113 40.3066V40.5527C41.1113 40.8535 41.1523 41.1367 41.2344 41.4023C41.3203 41.6641 41.4434 41.8945 41.6035 42.0938C41.7676 42.293 41.9648 42.4492 42.1953 42.5625C42.4297 42.6758 42.6953 42.7324 42.9922 42.7324C43.375 42.7324 43.6992 42.6543 43.9648 42.498C44.2305 42.3418 44.4629 42.1328 44.6621 41.8711L45.3184 42.3926C45.1816 42.5996 45.0078 42.7969 44.7969 42.9844C44.5859 43.1719 44.3262 43.3242 44.0176 43.4414C43.7129 43.5586 43.3516 43.6172 42.9336 43.6172ZM48.3652 42.8438L50.1289 37.1602H51.2891L48.7461 44.4785C48.6875 44.6348 48.6094 44.8027 48.5117 44.9824C48.418 45.166 48.2969 45.3398 48.1484 45.5039C48 45.668 47.8203 45.8008 47.6094 45.9023C47.4023 46.0078 47.1543 46.0605 46.8652 46.0605C46.7793 46.0605 46.6699 46.0488 46.5371 46.0254C46.4043 46.002 46.3105 45.9824 46.2559 45.9668L46.25 45.0879C46.2812 45.0918 46.3301 45.0957 46.3965 45.0996C46.4668 45.1074 46.5156 45.1113 46.543 45.1113C46.7891 45.1113 46.998 45.0781 47.1699 45.0117C47.3418 44.9492 47.4863 44.8418 47.6035 44.6895C47.7246 44.541 47.8281 44.3359 47.9141 44.0742L48.3652 42.8438ZM47.0703 37.1602L48.7168 42.082L48.998 43.2246L48.2188 43.623L45.8867 37.1602H47.0703ZM53.4453 34.5V43.5H52.3555V34.5H53.4453ZM56.3633 37.1602V43.5H55.2734V37.1602H56.3633ZM55.1914 35.4785C55.1914 35.3027 55.2441 35.1543 55.3496 35.0332C55.459 34.9121 55.6191 34.8516 55.8301 34.8516C56.0371 34.8516 56.1953 34.9121 56.3047 35.0332C56.418 35.1543 56.4746 35.3027 56.4746 35.4785C56.4746 35.6465 56.418 35.791 56.3047 35.9121C56.1953 36.0293 56.0371 36.0879 55.8301 36.0879C55.6191 36.0879 55.459 36.0293 55.3496 35.9121C55.2441 35.791 55.1914 35.6465 55.1914 35.4785ZM59.1934 34.5V43.5H58.1035V34.5H59.1934ZM63.0664 37.1602L60.3008 40.1191L58.7539 41.7246L58.666 40.5703L59.7734 39.2461L61.7422 37.1602H63.0664ZM62.0762 43.5L59.8145 40.4766L60.377 39.5098L63.3535 43.5H62.0762ZM68.0645 42.2695V34.5H69.1543V43.5H68.1582L68.0645 42.2695ZM63.7988 40.4004V40.2773C63.7988 39.793 63.8574 39.3535 63.9746 38.959C64.0957 38.5605 64.2656 38.2188 64.4844 37.9336C64.707 37.6484 64.9707 37.4297 65.2754 37.2773C65.584 37.1211 65.9277 37.043 66.3066 37.043C66.7051 37.043 67.0527 37.1133 67.3496 37.2539C67.6504 37.3906 67.9043 37.5918 68.1113 37.8574C68.3223 38.1191 68.4883 38.4355 68.6094 38.8066C68.7305 39.1777 68.8145 39.5977 68.8613 40.0664V40.6055C68.8184 41.0703 68.7344 41.4883 68.6094 41.8594C68.4883 42.2305 68.3223 42.5469 68.1113 42.8086C67.9043 43.0703 67.6504 43.2715 67.3496 43.4121C67.0488 43.5488 66.6973 43.6172 66.2949 43.6172C65.9238 43.6172 65.584 43.5371 65.2754 43.377C64.9707 43.2168 64.707 42.9922 64.4844 42.7031C64.2656 42.4141 64.0957 42.0742 63.9746 41.6836C63.8574 41.2891 63.7988 40.8613 63.7988 40.4004ZM64.8887 40.2773V40.4004C64.8887 40.7168 64.9199 41.0137 64.9824 41.291C65.0488 41.5684 65.1504 41.8125 65.2871 42.0234C65.4238 42.2344 65.5977 42.4004 65.8086 42.5215C66.0195 42.6387 66.2715 42.6973 66.5645 42.6973C66.9238 42.6973 67.2188 42.6211 67.4492 42.4688C67.6836 42.3164 67.8711 42.1152 68.0117 41.8652C68.1523 41.6152 68.2617 41.3438 68.3398 41.0508V39.6387C68.293 39.4238 68.2246 39.2168 68.1348 39.0176C68.0488 38.8145 67.9355 38.6348 67.7949 38.4785C67.6582 38.3184 67.4883 38.1914 67.2852 38.0977C67.0859 38.0039 66.8496 37.957 66.5762 37.957C66.2793 37.957 66.0234 38.0195 65.8086 38.1445C65.5977 38.2656 65.4238 38.4336 65.2871 38.6484C65.1504 38.8594 65.0488 39.1055 64.9824 39.3867C64.9199 39.6641 64.8887 39.9609 64.8887 40.2773ZM74.7207 42.0352V37.1602H75.8105V43.5H74.7734L74.7207 42.0352ZM74.9258 40.6992L75.377 40.6875C75.377 41.1094 75.332 41.5 75.2422 41.8594C75.1562 42.2148 75.0156 42.5234 74.8203 42.7852C74.625 43.0469 74.3691 43.252 74.0527 43.4004C73.7363 43.5449 73.3516 43.6172 72.8984 43.6172C72.5898 43.6172 72.3066 43.5723 72.0488 43.4824C71.7949 43.3926 71.5762 43.2539 71.3926 43.0664C71.209 42.8789 71.0664 42.6348 70.9648 42.334C70.8672 42.0332 70.8184 41.6719 70.8184 41.25V37.1602H71.9023V41.2617C71.9023 41.5469 71.9336 41.7832 71.9961 41.9707C72.0625 42.1543 72.1504 42.3008 72.2598 42.4102C72.373 42.5156 72.498 42.5898 72.6348 42.6328C72.7754 42.6758 72.9199 42.6973 73.0684 42.6973C73.5293 42.6973 73.8945 42.6094 74.1641 42.4336C74.4336 42.2539 74.627 42.0137 74.7441 41.7129C74.8652 41.4082 74.9258 41.0703 74.9258 40.6992ZM71.4512 35.4668C71.4512 35.291 71.5059 35.1426 71.6152 35.0215C71.7246 34.9004 71.8828 34.8398 72.0898 34.8398C72.3008 34.8398 72.4609 34.9004 72.5703 35.0215C72.6797 35.1426 72.7344 35.291 72.7344 35.4668C72.7344 35.6348 72.6797 35.7793 72.5703 35.9004C72.4609 36.0176 72.3008 36.0762 72.0898 36.0762C71.8828 36.0762 71.7246 36.0176 71.6152 35.9004C71.5059 35.7793 71.4512 35.6348 71.4512 35.4668ZM73.9766 35.4785C73.9766 35.3027 74.0293 35.1543 74.1348 35.0332C74.2441 34.9121 74.4043 34.8516 74.6152 34.8516C74.8223 34.8516 74.9805 34.9121 75.0898 35.0332C75.2031 35.1543 75.2598 35.3027 75.2598 35.4785C75.2598 35.6465 75.2031 35.791 75.0898 35.9121C74.9805 36.0293 74.8223 36.0879 74.6152 36.0879C74.4043 36.0879 74.2441 36.0293 74.1348 35.9121C74.0293 35.791 73.9766 35.6465 73.9766 35.4785ZM82.1855 42.6094V43.5H77.5742V42.6094H82.1855ZM82.0156 37.9277L77.8203 43.5H77.1582V42.7031L81.3242 37.1602H82.0156V37.9277ZM81.5352 37.1602V38.0566H77.2051V37.1602H81.5352ZM87.2949 42.0352V37.1602H88.3848V43.5H87.3477L87.2949 42.0352ZM87.5 40.6992L87.9512 40.6875C87.9512 41.1094 87.9062 41.5 87.8164 41.8594C87.7305 42.2148 87.5898 42.5234 87.3945 42.7852C87.1992 43.0469 86.9434 43.252 86.627 43.4004C86.3105 43.5449 85.9258 43.6172 85.4727 43.6172C85.1641 43.6172 84.8809 43.5723 84.623 43.4824C84.3691 43.3926 84.1504 43.2539 83.9668 43.0664C83.7832 42.8789 83.6406 42.6348 83.5391 42.334C83.4414 42.0332 83.3926 41.6719 83.3926 41.25V37.1602H84.4766V41.2617C84.4766 41.5469 84.5078 41.7832 84.5703 41.9707C84.6367 42.1543 84.7246 42.3008 84.834 42.4102C84.9473 42.5156 85.0723 42.5898 85.209 42.6328C85.3496 42.6758 85.4941 42.6973 85.6426 42.6973C86.1035 42.6973 86.4688 42.6094 86.7383 42.4336C87.0078 42.2539 87.2012 42.0137 87.3184 41.7129C87.4395 41.4082 87.5 41.0703 87.5 40.6992ZM84.0254 35.4668C84.0254 35.291 84.0801 35.1426 84.1895 35.0215C84.2988 34.9004 84.457 34.8398 84.6641 34.8398C84.875 34.8398 85.0352 34.9004 85.1445 35.0215C85.2539 35.1426 85.3086 35.291 85.3086 35.4668C85.3086 35.6348 85.2539 35.7793 85.1445 35.9004C85.0352 36.0176 84.875 36.0762 84.6641 36.0762C84.457 36.0762 84.2988 36.0176 84.1895 35.9004C84.0801 35.7793 84.0254 35.6348 84.0254 35.4668ZM86.5508 35.4785C86.5508 35.3027 86.6035 35.1543 86.709 35.0332C86.8184 34.9121 86.9785 34.8516 87.1895 34.8516C87.3965 34.8516 87.5547 34.9121 87.6641 35.0332C87.7773 35.1543 87.834 35.3027 87.834 35.4785C87.834 35.6465 87.7773 35.791 87.6641 35.9121C87.5547 36.0293 87.3965 36.0879 87.1895 36.0879C86.9785 36.0879 86.8184 36.0293 86.709 35.9121C86.6035 35.791 86.5508 35.6465 86.5508 35.4785Z" fill="white"/>
<path d="M98.0057 34.8636L95.1932 45.3125H94.2727L97.0852 34.8636H98.0057Z" fill="white"/>
<path d="M105.203 34.9688V43.5H104.072V34.9688H105.203ZM103.996 33.5977C103.996 33.4258 104.049 33.2793 104.154 33.1582C104.264 33.0371 104.424 32.9766 104.635 32.9766C104.842 32.9766 105 33.0371 105.109 33.1582C105.223 33.2793 105.279 33.4258 105.279 33.5977C105.279 33.7695 105.223 33.916 105.109 34.0371C105 34.1543 104.842 34.2129 104.635 34.2129C104.424 34.2129 104.264 34.1543 104.154 34.0371C104.049 33.916 103.996 33.7695 103.996 33.5977ZM110.787 41.8184C110.787 41.6621 110.752 41.5176 110.682 41.3848C110.615 41.248 110.477 41.125 110.266 41.0156C110.059 40.9023 109.746 40.8047 109.328 40.7227C108.977 40.6484 108.658 40.5605 108.373 40.459C108.092 40.3574 107.852 40.2344 107.652 40.0898C107.457 39.9453 107.307 39.7754 107.201 39.5801C107.096 39.3848 107.043 39.1562 107.043 38.8945C107.043 38.6445 107.098 38.4082 107.207 38.1855C107.32 37.9629 107.479 37.7656 107.682 37.5938C107.889 37.4219 108.137 37.2871 108.426 37.1895C108.715 37.0918 109.037 37.043 109.393 37.043C109.9 37.043 110.334 37.1328 110.693 37.3125C111.053 37.4922 111.328 37.7324 111.52 38.0332C111.711 38.3301 111.807 38.6602 111.807 39.0234H110.723C110.723 38.8477 110.67 38.6777 110.564 38.5137C110.463 38.3457 110.312 38.207 110.113 38.0977C109.918 37.9883 109.678 37.9336 109.393 37.9336C109.092 37.9336 108.848 37.9805 108.66 38.0742C108.477 38.1641 108.342 38.2793 108.256 38.4199C108.174 38.5605 108.133 38.709 108.133 38.8652C108.133 38.9824 108.152 39.0879 108.191 39.1816C108.234 39.2715 108.309 39.3555 108.414 39.4336C108.52 39.5078 108.668 39.5781 108.859 39.6445C109.051 39.7109 109.295 39.7773 109.592 39.8438C110.111 39.9609 110.539 40.1016 110.875 40.2656C111.211 40.4297 111.461 40.6309 111.625 40.8691C111.789 41.1074 111.871 41.3965 111.871 41.7363C111.871 42.0137 111.812 42.2676 111.695 42.498C111.582 42.7285 111.416 42.9277 111.197 43.0957C110.982 43.2598 110.725 43.3887 110.424 43.4824C110.127 43.5723 109.793 43.6172 109.422 43.6172C108.863 43.6172 108.391 43.5176 108.004 43.3184C107.617 43.1191 107.324 42.8613 107.125 42.5449C106.926 42.2285 106.826 41.8945 106.826 41.543H107.916C107.932 41.8398 108.018 42.0762 108.174 42.252C108.33 42.4238 108.521 42.5469 108.748 42.6211C108.975 42.6914 109.199 42.7266 109.422 42.7266C109.719 42.7266 109.967 42.6875 110.166 42.6094C110.369 42.5312 110.523 42.4238 110.629 42.2871C110.734 42.1504 110.787 41.9941 110.787 41.8184ZM115.949 37.1602V37.9922H112.521V37.1602H115.949ZM113.682 35.6191H114.766V41.9297C114.766 42.1445 114.799 42.3066 114.865 42.416C114.932 42.5254 115.018 42.5977 115.123 42.6328C115.229 42.668 115.342 42.6855 115.463 42.6855C115.553 42.6855 115.646 42.6777 115.744 42.6621C115.846 42.6426 115.922 42.627 115.973 42.6152L115.979 43.5C115.893 43.5273 115.779 43.5527 115.639 43.5762C115.502 43.6035 115.336 43.6172 115.141 43.6172C114.875 43.6172 114.631 43.5645 114.408 43.459C114.186 43.3535 114.008 43.1777 113.875 42.9316C113.746 42.6816 113.682 42.3457 113.682 41.9238V35.6191ZM120.959 42.416V39.1523C120.959 38.9023 120.908 38.6855 120.807 38.502C120.709 38.3145 120.561 38.1699 120.361 38.0684C120.162 37.9668 119.916 37.916 119.623 37.916C119.35 37.916 119.109 37.9629 118.902 38.0566C118.699 38.1504 118.539 38.2734 118.422 38.4258C118.309 38.5781 118.252 38.7422 118.252 38.918H117.168C117.168 38.6914 117.227 38.4668 117.344 38.2441C117.461 38.0215 117.629 37.8203 117.848 37.6406C118.07 37.457 118.336 37.3125 118.645 37.207C118.957 37.0977 119.305 37.043 119.688 37.043C120.148 37.043 120.555 37.1211 120.906 37.2773C121.262 37.4336 121.539 37.6699 121.738 37.9863C121.941 38.2988 122.043 38.6914 122.043 39.1641V42.1172C122.043 42.3281 122.061 42.5527 122.096 42.791C122.135 43.0293 122.191 43.2344 122.266 43.4062V43.5H121.135C121.08 43.375 121.037 43.209 121.006 43.002C120.975 42.791 120.959 42.5957 120.959 42.416ZM121.146 39.6562L121.158 40.418H120.062C119.754 40.418 119.479 40.4434 119.236 40.4941C118.994 40.541 118.791 40.6133 118.627 40.7109C118.463 40.8086 118.338 40.9316 118.252 41.0801C118.166 41.2246 118.123 41.3945 118.123 41.5898C118.123 41.7891 118.168 41.9707 118.258 42.1348C118.348 42.2988 118.482 42.4297 118.662 42.5273C118.846 42.6211 119.07 42.668 119.336 42.668C119.668 42.668 119.961 42.5977 120.215 42.457C120.469 42.3164 120.67 42.1445 120.818 41.9414C120.971 41.7383 121.053 41.541 121.064 41.3496L121.527 41.8711C121.5 42.0352 121.426 42.2168 121.305 42.416C121.184 42.6152 121.021 42.8066 120.818 42.9902C120.619 43.1699 120.381 43.3203 120.104 43.4414C119.83 43.5586 119.521 43.6172 119.178 43.6172C118.748 43.6172 118.371 43.5332 118.047 43.3652C117.727 43.1973 117.477 42.9727 117.297 42.6914C117.121 42.4062 117.033 42.0879 117.033 41.7363C117.033 41.3965 117.1 41.0977 117.232 40.8398C117.365 40.5781 117.557 40.3613 117.807 40.1895C118.057 40.0137 118.357 39.8809 118.709 39.791C119.061 39.7012 119.453 39.6562 119.887 39.6562H121.146ZM124.832 38.5137V43.5H123.748V37.1602H124.773L124.832 38.5137ZM124.574 40.0898L124.123 40.0723C124.127 39.6387 124.191 39.2383 124.316 38.8711C124.441 38.5 124.617 38.1777 124.844 37.9043C125.07 37.6309 125.34 37.4199 125.652 37.2715C125.969 37.1191 126.318 37.043 126.701 37.043C127.014 37.043 127.295 37.0859 127.545 37.1719C127.795 37.2539 128.008 37.3867 128.184 37.5703C128.363 37.7539 128.5 37.9922 128.594 38.2852C128.688 38.5742 128.734 38.9277 128.734 39.3457V43.5H127.645V39.334C127.645 39.002 127.596 38.7363 127.498 38.5371C127.4 38.334 127.258 38.1875 127.07 38.0977C126.883 38.0039 126.652 37.957 126.379 37.957C126.109 37.957 125.863 38.0137 125.641 38.127C125.422 38.2402 125.232 38.3965 125.072 38.5957C124.916 38.7949 124.793 39.0234 124.703 39.2812C124.617 39.5352 124.574 39.8047 124.574 40.0898ZM130.375 34.5H131.465V42.2695L131.371 43.5H130.375V34.5ZM135.748 40.2773V40.4004C135.748 40.8613 135.693 41.2891 135.584 41.6836C135.475 42.0742 135.314 42.4141 135.104 42.7031C134.893 42.9922 134.635 43.2168 134.33 43.377C134.025 43.5371 133.676 43.6172 133.281 43.6172C132.879 43.6172 132.525 43.5488 132.221 43.4121C131.92 43.2715 131.666 43.0703 131.459 42.8086C131.252 42.5469 131.086 42.2305 130.961 41.8594C130.84 41.4883 130.756 41.0703 130.709 40.6055V40.0664C130.756 39.5977 130.84 39.1777 130.961 38.8066C131.086 38.4355 131.252 38.1191 131.459 37.8574C131.666 37.5918 131.92 37.3906 132.221 37.2539C132.521 37.1133 132.871 37.043 133.27 37.043C133.668 37.043 134.021 37.1211 134.33 37.2773C134.639 37.4297 134.896 37.6484 135.104 37.9336C135.314 38.2188 135.475 38.5605 135.584 38.959C135.693 39.3535 135.748 39.793 135.748 40.2773ZM134.658 40.4004V40.2773C134.658 39.9609 134.629 39.6641 134.57 39.3867C134.512 39.1055 134.418 38.8594 134.289 38.6484C134.16 38.4336 133.99 38.2656 133.779 38.1445C133.568 38.0195 133.309 37.957 133 37.957C132.727 37.957 132.488 38.0039 132.285 38.0977C132.086 38.1914 131.916 38.3184 131.775 38.4785C131.635 38.6348 131.52 38.8145 131.43 39.0176C131.344 39.2168 131.279 39.4238 131.236 39.6387V41.0508C131.299 41.3242 131.4 41.5879 131.541 41.8418C131.686 42.0918 131.877 42.2969 132.115 42.457C132.357 42.6172 132.656 42.6973 133.012 42.6973C133.305 42.6973 133.555 42.6387 133.762 42.5215C133.973 42.4004 134.143 42.2344 134.271 42.0234C134.404 41.8125 134.502 41.5684 134.564 41.291C134.627 41.0137 134.658 40.7168 134.658 40.4004ZM140.998 42.0352V37.1602H142.088V43.5H141.051L140.998 42.0352ZM141.203 40.6992L141.654 40.6875C141.654 41.1094 141.609 41.5 141.52 41.8594C141.434 42.2148 141.293 42.5234 141.098 42.7852C140.902 43.0469 140.646 43.252 140.33 43.4004C140.014 43.5449 139.629 43.6172 139.176 43.6172C138.867 43.6172 138.584 43.5723 138.326 43.4824C138.072 43.3926 137.854 43.2539 137.67 43.0664C137.486 42.8789 137.344 42.6348 137.242 42.334C137.145 42.0332 137.096 41.6719 137.096 41.25V37.1602H138.18V41.2617C138.18 41.5469 138.211 41.7832 138.273 41.9707C138.34 42.1543 138.428 42.3008 138.537 42.4102C138.65 42.5156 138.775 42.5898 138.912 42.6328C139.053 42.6758 139.197 42.6973 139.346 42.6973C139.807 42.6973 140.172 42.6094 140.441 42.4336C140.711 42.2539 140.904 42.0137 141.021 41.7129C141.143 41.4082 141.203 41.0703 141.203 40.6992ZM144.918 34.5V43.5H143.828V34.5H144.918Z" fill="white"/>
<rect x="32.5" y="79.5" width="435" height="202.397" stroke="white" stroke-opacity="0.1"/>
<path d="M56.1367 113.654H53.8574V112.734H56.1367C56.5781 112.734 56.9355 112.664 57.209 112.523C57.4824 112.383 57.6816 112.188 57.8066 111.938C57.9355 111.688 58 111.402 58 111.082C58 110.789 57.9355 110.514 57.8066 110.256C57.6816 109.998 57.4824 109.791 57.209 109.635C56.9355 109.475 56.5781 109.395 56.1367 109.395H54.1211V117H52.9902V108.469H56.1367C56.7812 108.469 57.3262 108.58 57.7715 108.803C58.2168 109.025 58.5547 109.334 58.7852 109.729C59.0156 110.119 59.1309 110.566 59.1309 111.07C59.1309 111.617 59.0156 112.084 58.7852 112.471C58.5547 112.857 58.2168 113.152 57.7715 113.355C57.3262 113.555 56.7812 113.654 56.1367 113.654ZM61.5742 108V117H60.4844V108H61.5742ZM67.0527 115.916V112.652C67.0527 112.402 67.002 112.186 66.9004 112.002C66.8027 111.814 66.6543 111.67 66.4551 111.568C66.2559 111.467 66.0098 111.416 65.7168 111.416C65.4434 111.416 65.2031 111.463 64.9961 111.557C64.793 111.65 64.6328 111.773 64.5156 111.926C64.4023 112.078 64.3457 112.242 64.3457 112.418H63.2617C63.2617 112.191 63.3203 111.967 63.4375 111.744C63.5547 111.521 63.7227 111.32 63.9414 111.141C64.1641 110.957 64.4297 110.812 64.7383 110.707C65.0508 110.598 65.3984 110.543 65.7812 110.543C66.2422 110.543 66.6484 110.621 67 110.777C67.3555 110.934 67.6328 111.17 67.832 111.486C68.0352 111.799 68.1367 112.191 68.1367 112.664V115.617C68.1367 115.828 68.1543 116.053 68.1895 116.291C68.2285 116.529 68.2852 116.734 68.3594 116.906V117H67.2285C67.1738 116.875 67.1309 116.709 67.0996 116.502C67.0684 116.291 67.0527 116.096 67.0527 115.916ZM67.2402 113.156L67.252 113.918H66.1562C65.8477 113.918 65.5723 113.943 65.3301 113.994C65.0879 114.041 64.8848 114.113 64.7207 114.211C64.5566 114.309 64.4316 114.432 64.3457 114.58C64.2598 114.725 64.2168 114.895 64.2168 115.09C64.2168 115.289 64.2617 115.471 64.3516 115.635C64.4414 115.799 64.5762 115.93 64.7559 116.027C64.9395 116.121 65.1641 116.168 65.4297 116.168C65.7617 116.168 66.0547 116.098 66.3086 115.957C66.5625 115.816 66.7637 115.645 66.9121 115.441C67.0645 115.238 67.1465 115.041 67.1582 114.85L67.6211 115.371C67.5938 115.535 67.5195 115.717 67.3984 115.916C67.2773 116.115 67.1152 116.307 66.9121 116.49C66.7129 116.67 66.4746 116.82 66.1973 116.941C65.9238 117.059 65.6152 117.117 65.2715 117.117C64.8418 117.117 64.4648 117.033 64.1406 116.865C63.8203 116.697 63.5703 116.473 63.3906 116.191C63.2148 115.906 63.127 115.588 63.127 115.236C63.127 114.896 63.1934 114.598 63.3262 114.34C63.459 114.078 63.6504 113.861 63.9004 113.689C64.1504 113.514 64.4512 113.381 64.8027 113.291C65.1543 113.201 65.5469 113.156 65.9805 113.156H67.2402ZM70.9316 108V117H69.8418V108H70.9316ZM74.8047 110.66L72.0391 113.619L70.4922 115.225L70.4043 114.07L71.5117 112.746L73.4805 110.66H74.8047ZM73.8145 117L71.5527 113.977L72.1152 113.01L75.0918 117H73.8145ZM79.6621 115.916V112.652C79.6621 112.402 79.6113 112.186 79.5098 112.002C79.4121 111.814 79.2637 111.67 79.0645 111.568C78.8652 111.467 78.6191 111.416 78.3262 111.416C78.0527 111.416 77.8125 111.463 77.6055 111.557C77.4023 111.65 77.2422 111.773 77.125 111.926C77.0117 112.078 76.9551 112.242 76.9551 112.418H75.8711C75.8711 112.191 75.9297 111.967 76.0469 111.744C76.1641 111.521 76.332 111.32 76.5508 111.141C76.7734 110.957 77.0391 110.812 77.3477 110.707C77.6602 110.598 78.0078 110.543 78.3906 110.543C78.8516 110.543 79.2578 110.621 79.6094 110.777C79.9648 110.934 80.2422 111.17 80.4414 111.486C80.6445 111.799 80.7461 112.191 80.7461 112.664V115.617C80.7461 115.828 80.7637 116.053 80.7988 116.291C80.8379 116.529 80.8945 116.734 80.9688 116.906V117H79.8379C79.7832 116.875 79.7402 116.709 79.709 116.502C79.6777 116.291 79.6621 116.096 79.6621 115.916ZM79.8496 113.156L79.8613 113.918H78.7656C78.457 113.918 78.1816 113.943 77.9395 113.994C77.6973 114.041 77.4941 114.113 77.3301 114.211C77.166 114.309 77.041 114.432 76.9551 114.58C76.8691 114.725 76.8262 114.895 76.8262 115.09C76.8262 115.289 76.8711 115.471 76.9609 115.635C77.0508 115.799 77.1855 115.93 77.3652 116.027C77.5488 116.121 77.7734 116.168 78.0391 116.168C78.3711 116.168 78.6641 116.098 78.918 115.957C79.1719 115.816 79.373 115.645 79.5215 115.441C79.6738 115.238 79.7559 115.041 79.7676 114.85L80.2305 115.371C80.2031 115.535 80.1289 115.717 80.0078 115.916C79.8867 116.115 79.7246 116.307 79.5215 116.49C79.3223 116.67 79.084 116.82 78.8066 116.941C78.5332 117.059 78.2246 117.117 77.8809 117.117C77.4512 117.117 77.0742 117.033 76.75 116.865C76.4297 116.697 76.1797 116.473 76 116.191C75.8242 115.906 75.7363 115.588 75.7363 115.236C75.7363 114.896 75.8027 114.598 75.9355 114.34C76.0684 114.078 76.2598 113.861 76.5098 113.689C76.7598 113.514 77.0605 113.381 77.4121 113.291C77.7637 113.201 78.1562 113.156 78.5898 113.156H79.8496ZM92.1543 108.469V117H91.0176L86.7227 110.42V117H85.5918V108.469H86.7227L91.0352 115.066V108.469H92.1543ZM93.707 113.9V113.766C93.707 113.309 93.7734 112.885 93.9062 112.494C94.0391 112.1 94.2305 111.758 94.4805 111.469C94.7305 111.176 95.0332 110.949 95.3887 110.789C95.7441 110.625 96.1426 110.543 96.584 110.543C97.0293 110.543 97.4297 110.625 97.7852 110.789C98.1445 110.949 98.4492 111.176 98.6992 111.469C98.9531 111.758 99.1465 112.1 99.2793 112.494C99.4121 112.885 99.4785 113.309 99.4785 113.766V113.9C99.4785 114.357 99.4121 114.781 99.2793 115.172C99.1465 115.562 98.9531 115.904 98.6992 116.197C98.4492 116.486 98.1465 116.713 97.791 116.877C97.4395 117.037 97.041 117.117 96.5957 117.117C96.1504 117.117 95.75 117.037 95.3945 116.877C95.0391 116.713 94.7344 116.486 94.4805 116.197C94.2305 115.904 94.0391 115.562 93.9062 115.172C93.7734 114.781 93.707 114.357 93.707 113.9ZM94.791 113.766V113.9C94.791 114.217 94.8281 114.516 94.9023 114.797C94.9766 115.074 95.0879 115.32 95.2363 115.535C95.3887 115.75 95.5781 115.92 95.8047 116.045C96.0312 116.166 96.2949 116.227 96.5957 116.227C96.8926 116.227 97.1523 116.166 97.375 116.045C97.6016 115.92 97.7891 115.75 97.9375 115.535C98.0859 115.32 98.1973 115.074 98.2715 114.797C98.3496 114.516 98.3887 114.217 98.3887 113.9V113.766C98.3887 113.453 98.3496 113.158 98.2715 112.881C98.1973 112.6 98.084 112.352 97.9316 112.137C97.7832 111.918 97.5957 111.746 97.3691 111.621C97.1465 111.496 96.8848 111.434 96.584 111.434C96.2871 111.434 96.0254 111.496 95.7988 111.621C95.5762 111.746 95.3887 111.918 95.2363 112.137C95.0879 112.352 94.9766 112.6 94.9023 112.881C94.8281 113.158 94.791 113.453 94.791 113.766Z" fill="white"/>
<rect x="142" y="99" width="216" height="28" fill="white" fill-opacity="0.9"/>
<rect width="80" height="28" transform="translate(368 99)" fill="white" fill-opacity="0.15"/>
<path d="M378.203 108.469V117H377.072V108.469H378.203ZM376.996 107.098C376.996 106.926 377.049 106.779 377.154 106.658C377.264 106.537 377.424 106.477 377.635 106.477C377.842 106.477 378 106.537 378.109 106.658C378.223 106.779 378.279 106.926 378.279 107.098C378.279 107.27 378.223 107.416 378.109 107.537C378 107.654 377.842 107.713 377.635 107.713C377.424 107.713 377.264 107.654 377.154 107.537C377.049 107.416 376.996 107.27 376.996 107.098ZM381.273 108V117H380.184V108H381.273ZM385.551 116.227C385.809 116.227 386.047 116.174 386.266 116.068C386.484 115.963 386.664 115.818 386.805 115.635C386.945 115.447 387.025 115.234 387.045 114.996H388.076C388.057 115.371 387.93 115.721 387.695 116.045C387.465 116.365 387.162 116.625 386.787 116.824C386.412 117.02 386 117.117 385.551 117.117C385.074 117.117 384.658 117.033 384.303 116.865C383.951 116.697 383.658 116.467 383.424 116.174C383.193 115.881 383.02 115.545 382.902 115.166C382.789 114.783 382.732 114.379 382.732 113.953V113.707C382.732 113.281 382.789 112.879 382.902 112.5C383.02 112.117 383.193 111.779 383.424 111.486C383.658 111.193 383.951 110.963 384.303 110.795C384.658 110.627 385.074 110.543 385.551 110.543C386.047 110.543 386.48 110.645 386.852 110.848C387.223 111.047 387.514 111.32 387.725 111.668C387.939 112.012 388.057 112.402 388.076 112.84H387.045C387.025 112.578 386.951 112.342 386.822 112.131C386.697 111.92 386.525 111.752 386.307 111.627C386.092 111.498 385.84 111.434 385.551 111.434C385.219 111.434 384.939 111.5 384.713 111.633C384.49 111.762 384.312 111.938 384.18 112.16C384.051 112.379 383.957 112.623 383.898 112.893C383.844 113.158 383.816 113.43 383.816 113.707V113.953C383.816 114.23 383.844 114.504 383.898 114.773C383.953 115.043 384.045 115.287 384.174 115.506C384.307 115.725 384.484 115.9 384.707 116.033C384.934 116.162 385.215 116.227 385.551 116.227ZM384.953 117.059H385.732L385.662 117.369C385.889 117.408 386.094 117.502 386.277 117.65C386.465 117.799 386.559 118.043 386.559 118.383C386.559 118.566 386.52 118.732 386.441 118.881C386.367 119.033 386.256 119.162 386.107 119.268C385.959 119.377 385.773 119.461 385.551 119.52C385.332 119.578 385.076 119.607 384.783 119.607L384.742 118.98C384.922 118.98 385.084 118.961 385.229 118.922C385.377 118.883 385.494 118.82 385.58 118.734C385.67 118.648 385.715 118.537 385.715 118.4C385.715 118.271 385.682 118.17 385.615 118.096C385.549 118.021 385.445 117.965 385.305 117.926C385.168 117.891 384.99 117.865 384.771 117.85L384.953 117.059ZM391.926 117.117C391.484 117.117 391.084 117.043 390.725 116.895C390.369 116.742 390.062 116.529 389.805 116.256C389.551 115.982 389.355 115.658 389.219 115.283C389.082 114.908 389.014 114.498 389.014 114.053V113.807C389.014 113.291 389.09 112.832 389.242 112.43C389.395 112.023 389.602 111.68 389.863 111.398C390.125 111.117 390.422 110.904 390.754 110.76C391.086 110.615 391.43 110.543 391.785 110.543C392.238 110.543 392.629 110.621 392.957 110.777C393.289 110.934 393.561 111.152 393.771 111.434C393.982 111.711 394.139 112.039 394.24 112.418C394.342 112.793 394.393 113.203 394.393 113.648V114.135H389.658V113.25H393.309V113.168C393.293 112.887 393.234 112.613 393.133 112.348C393.035 112.082 392.879 111.863 392.664 111.691C392.449 111.52 392.156 111.434 391.785 111.434C391.539 111.434 391.312 111.486 391.105 111.592C390.898 111.693 390.721 111.846 390.572 112.049C390.424 112.252 390.309 112.5 390.227 112.793C390.145 113.086 390.104 113.424 390.104 113.807V114.053C390.104 114.354 390.145 114.637 390.227 114.902C390.312 115.164 390.436 115.395 390.596 115.594C390.76 115.793 390.957 115.949 391.188 116.062C391.422 116.176 391.688 116.232 391.984 116.232C392.367 116.232 392.691 116.154 392.957 115.998C393.223 115.842 393.455 115.633 393.654 115.371L394.311 115.893C394.174 116.1 394 116.297 393.789 116.484C393.578 116.672 393.318 116.824 393.01 116.941C392.705 117.059 392.344 117.117 391.926 117.117ZM396.836 108V117H395.746V108H396.836ZM401.207 117.117C400.766 117.117 400.365 117.043 400.006 116.895C399.65 116.742 399.344 116.529 399.086 116.256C398.832 115.982 398.637 115.658 398.5 115.283C398.363 114.908 398.295 114.498 398.295 114.053V113.807C398.295 113.291 398.371 112.832 398.523 112.43C398.676 112.023 398.883 111.68 399.145 111.398C399.406 111.117 399.703 110.904 400.035 110.76C400.367 110.615 400.711 110.543 401.066 110.543C401.52 110.543 401.91 110.621 402.238 110.777C402.57 110.934 402.842 111.152 403.053 111.434C403.264 111.711 403.42 112.039 403.521 112.418C403.623 112.793 403.674 113.203 403.674 113.648V114.135H398.939V113.25H402.59V113.168C402.574 112.887 402.516 112.613 402.414 112.348C402.316 112.082 402.16 111.863 401.945 111.691C401.73 111.52 401.438 111.434 401.066 111.434C400.82 111.434 400.594 111.486 400.387 111.592C400.18 111.693 400.002 111.846 399.854 112.049C399.705 112.252 399.59 112.5 399.508 112.793C399.426 113.086 399.385 113.424 399.385 113.807V114.053C399.385 114.354 399.426 114.637 399.508 114.902C399.594 115.164 399.717 115.395 399.877 115.594C400.041 115.793 400.238 115.949 400.469 116.062C400.703 116.176 400.969 116.232 401.266 116.232C401.648 116.232 401.973 116.154 402.238 115.998C402.504 115.842 402.736 115.633 402.936 115.371L403.592 115.893C403.455 116.1 403.281 116.297 403.07 116.484C402.859 116.672 402.6 116.824 402.291 116.941C401.986 117.059 401.625 117.117 401.207 117.117ZM406.023 111.656V117H404.939V110.66H405.994L406.023 111.656ZM408.004 110.625L407.998 111.633C407.908 111.613 407.822 111.602 407.74 111.598C407.662 111.59 407.572 111.586 407.471 111.586C407.221 111.586 407 111.625 406.809 111.703C406.617 111.781 406.455 111.891 406.322 112.031C406.189 112.172 406.084 112.34 406.006 112.535C405.932 112.727 405.883 112.938 405.859 113.168L405.555 113.344C405.555 112.961 405.592 112.602 405.666 112.266C405.744 111.93 405.863 111.633 406.023 111.375C406.184 111.113 406.387 110.91 406.633 110.766C406.883 110.617 407.18 110.543 407.523 110.543C407.602 110.543 407.691 110.553 407.793 110.572C407.895 110.588 407.965 110.605 408.004 110.625ZM410.184 110.66V117H409.094V110.66H410.184ZM409.012 108.979C409.012 108.803 409.064 108.654 409.17 108.533C409.279 108.412 409.439 108.352 409.65 108.352C409.857 108.352 410.016 108.412 410.125 108.533C410.238 108.654 410.295 108.803 410.295 108.979C410.295 109.146 410.238 109.291 410.125 109.412C410.016 109.529 409.857 109.588 409.65 109.588C409.439 109.588 409.279 109.529 409.17 109.412C409.064 109.291 409.012 109.146 409.012 108.979ZM421.369 112.752V115.875C421.264 116.031 421.096 116.207 420.865 116.402C420.635 116.594 420.316 116.762 419.91 116.906C419.508 117.047 418.988 117.117 418.352 117.117C417.832 117.117 417.354 117.027 416.916 116.848C416.482 116.664 416.105 116.398 415.785 116.051C415.469 115.699 415.223 115.273 415.047 114.773C414.875 114.27 414.789 113.699 414.789 113.062V112.4C414.789 111.764 414.863 111.195 415.012 110.695C415.164 110.195 415.387 109.771 415.68 109.424C415.973 109.072 416.332 108.807 416.758 108.627C417.184 108.443 417.672 108.352 418.223 108.352C418.875 108.352 419.42 108.465 419.857 108.691C420.299 108.914 420.643 109.223 420.889 109.617C421.139 110.012 421.299 110.461 421.369 110.965H420.238C420.188 110.656 420.086 110.375 419.934 110.121C419.785 109.867 419.572 109.664 419.295 109.512C419.018 109.355 418.66 109.277 418.223 109.277C417.828 109.277 417.486 109.35 417.197 109.494C416.908 109.639 416.67 109.846 416.482 110.115C416.295 110.385 416.154 110.711 416.061 111.094C415.971 111.477 415.926 111.908 415.926 112.389V113.062C415.926 113.555 415.982 113.994 416.096 114.381C416.213 114.768 416.379 115.098 416.594 115.371C416.809 115.641 417.064 115.846 417.361 115.986C417.662 116.127 417.994 116.197 418.357 116.197C418.76 116.197 419.086 116.164 419.336 116.098C419.586 116.027 419.781 115.945 419.922 115.852C420.062 115.754 420.17 115.662 420.244 115.576V113.666H418.27V112.752H421.369ZM425.711 117.117C425.27 117.117 424.869 117.043 424.51 116.895C424.154 116.742 423.848 116.529 423.59 116.256C423.336 115.982 423.141 115.658 423.004 115.283C422.867 114.908 422.799 114.498 422.799 114.053V113.807C422.799 113.291 422.875 112.832 423.027 112.43C423.18 112.023 423.387 111.68 423.648 111.398C423.91 111.117 424.207 110.904 424.539 110.76C424.871 110.615 425.215 110.543 425.57 110.543C426.023 110.543 426.414 110.621 426.742 110.777C427.074 110.934 427.346 111.152 427.557 111.434C427.768 111.711 427.924 112.039 428.025 112.418C428.127 112.793 428.178 113.203 428.178 113.648V114.135H423.443V113.25H427.094V113.168C427.078 112.887 427.02 112.613 426.918 112.348C426.82 112.082 426.664 111.863 426.449 111.691C426.234 111.52 425.941 111.434 425.57 111.434C425.324 111.434 425.098 111.486 424.891 111.592C424.684 111.693 424.506 111.846 424.357 112.049C424.209 112.252 424.094 112.5 424.012 112.793C423.93 113.086 423.889 113.424 423.889 113.807V114.053C423.889 114.354 423.93 114.637 424.012 114.902C424.098 115.164 424.221 115.395 424.381 115.594C424.545 115.793 424.742 115.949 424.973 116.062C425.207 116.176 425.473 116.232 425.77 116.232C426.152 116.232 426.477 116.154 426.742 115.998C427.008 115.842 427.24 115.633 427.439 115.371L428.096 115.893C427.959 116.1 427.785 116.297 427.574 116.484C427.363 116.672 427.104 116.824 426.795 116.941C426.49 117.059 426.129 117.117 425.711 117.117ZM432.098 110.66V111.492H428.67V110.66H432.098ZM429.83 109.119H430.914V115.43C430.914 115.645 430.947 115.807 431.014 115.916C431.08 116.025 431.166 116.098 431.271 116.133C431.377 116.168 431.49 116.186 431.611 116.186C431.701 116.186 431.795 116.178 431.893 116.162C431.994 116.143 432.07 116.127 432.121 116.115L432.127 117C432.041 117.027 431.928 117.053 431.787 117.076C431.65 117.104 431.484 117.117 431.289 117.117C431.023 117.117 430.779 117.064 430.557 116.959C430.334 116.854 430.156 116.678 430.023 116.432C429.895 116.182 429.83 115.846 429.83 115.424V109.119ZM434.547 110.66V117H433.457V110.66H434.547ZM433.375 108.979C433.375 108.803 433.428 108.654 433.533 108.533C433.643 108.412 433.803 108.352 434.014 108.352C434.221 108.352 434.379 108.412 434.488 108.533C434.602 108.654 434.658 108.803 434.658 108.979C434.658 109.146 434.602 109.291 434.488 109.412C434.379 109.529 434.221 109.588 434.014 109.588C433.803 109.588 433.643 109.529 433.533 109.412C433.428 109.291 433.375 109.146 433.375 108.979ZM437.371 111.656V117H436.287V110.66H437.342L437.371 111.656ZM439.352 110.625L439.346 111.633C439.256 111.613 439.17 111.602 439.088 111.598C439.01 111.59 438.92 111.586 438.818 111.586C438.568 111.586 438.348 111.625 438.156 111.703C437.965 111.781 437.803 111.891 437.67 112.031C437.537 112.172 437.432 112.34 437.354 112.535C437.279 112.727 437.23 112.938 437.207 113.168L436.902 113.344C436.902 112.961 436.939 112.602 437.014 112.266C437.092 111.93 437.211 111.633 437.371 111.375C437.531 111.113 437.734 110.91 437.98 110.766C438.23 110.617 438.527 110.543 438.871 110.543C438.949 110.543 439.039 110.553 439.141 110.572C439.242 110.588 439.312 110.605 439.352 110.625Z" fill="white"/>
<path d="M54.2031 153.318V161.849H53.0723V153.318H54.2031ZM52.9961 151.947C52.9961 151.775 53.0488 151.629 53.1543 151.507C53.2637 151.386 53.4238 151.326 53.6348 151.326C53.8418 151.326 54 151.386 54.1094 151.507C54.2227 151.629 54.2793 151.775 54.2793 151.947C54.2793 152.119 54.2227 152.265 54.1094 152.386C54 152.504 53.8418 152.562 53.6348 152.562C53.4238 152.562 53.2637 152.504 53.1543 152.386C53.0488 152.265 52.9961 152.119 52.9961 151.947ZM57.2734 152.849V161.849H56.1836V152.849H57.2734ZM61.5508 161.076C61.8086 161.076 62.0469 161.023 62.2656 160.918C62.4844 160.812 62.6641 160.668 62.8047 160.484C62.9453 160.297 63.0254 160.084 63.0449 159.845H64.0762C64.0566 160.22 63.9297 160.57 63.6953 160.894C63.4648 161.214 63.1621 161.474 62.7871 161.673C62.4121 161.869 62 161.966 61.5508 161.966C61.0742 161.966 60.6582 161.882 60.3027 161.714C59.9512 161.547 59.6582 161.316 59.4238 161.023C59.1934 160.73 59.0195 160.394 58.9023 160.015C58.7891 159.632 58.7324 159.228 58.7324 158.802V158.556C58.7324 158.13 58.7891 157.728 58.9023 157.349C59.0195 156.966 59.1934 156.629 59.4238 156.336C59.6582 156.043 59.9512 155.812 60.3027 155.644C60.6582 155.476 61.0742 155.392 61.5508 155.392C62.0469 155.392 62.4805 155.494 62.8516 155.697C63.2227 155.896 63.5137 156.17 63.7246 156.517C63.9395 156.861 64.0566 157.252 64.0762 157.689H63.0449C63.0254 157.427 62.9512 157.191 62.8223 156.98C62.6973 156.769 62.5254 156.601 62.3066 156.476C62.0918 156.347 61.8398 156.283 61.5508 156.283C61.2188 156.283 60.9395 156.349 60.7129 156.482C60.4902 156.611 60.3125 156.787 60.1797 157.009C60.0508 157.228 59.957 157.472 59.8984 157.742C59.8438 158.007 59.8164 158.279 59.8164 158.556V158.802C59.8164 159.08 59.8438 159.353 59.8984 159.623C59.9531 159.892 60.0449 160.136 60.1738 160.355C60.3066 160.574 60.4844 160.75 60.707 160.882C60.9336 161.011 61.2148 161.076 61.5508 161.076ZM60.9531 161.908H61.7324L61.6621 162.218C61.8887 162.257 62.0938 162.351 62.2773 162.5C62.4648 162.648 62.5586 162.892 62.5586 163.232C62.5586 163.416 62.5195 163.582 62.4414 163.73C62.3672 163.882 62.2559 164.011 62.1074 164.117C61.959 164.226 61.7734 164.31 61.5508 164.369C61.332 164.427 61.0762 164.457 60.7832 164.457L60.7422 163.83C60.9219 163.83 61.084 163.81 61.2285 163.771C61.377 163.732 61.4941 163.67 61.5801 163.584C61.6699 163.498 61.7148 163.386 61.7148 163.25C61.7148 163.121 61.6816 163.019 61.6152 162.945C61.5488 162.871 61.4453 162.814 61.3047 162.775C61.168 162.74 60.9902 162.714 60.7715 162.699L60.9531 161.908ZM67.9258 161.966C67.4844 161.966 67.084 161.892 66.7246 161.744C66.3691 161.591 66.0625 161.379 65.8047 161.105C65.5508 160.832 65.3555 160.507 65.2188 160.132C65.082 159.757 65.0137 159.347 65.0137 158.902V158.656C65.0137 158.14 65.0898 157.681 65.2422 157.279C65.3945 156.873 65.6016 156.529 65.8633 156.248C66.125 155.966 66.4219 155.754 66.7539 155.609C67.0859 155.464 67.4297 155.392 67.7852 155.392C68.2383 155.392 68.6289 155.47 68.957 155.627C69.2891 155.783 69.5605 156.002 69.7715 156.283C69.9824 156.56 70.1387 156.888 70.2402 157.267C70.3418 157.642 70.3926 158.052 70.3926 158.498V158.984H65.6582V158.099H69.3086V158.017C69.293 157.736 69.2344 157.463 69.1328 157.197C69.0352 156.931 68.8789 156.713 68.6641 156.541C68.4492 156.369 68.1562 156.283 67.7852 156.283C67.5391 156.283 67.3125 156.336 67.1055 156.441C66.8984 156.543 66.7207 156.695 66.5723 156.898C66.4238 157.101 66.3086 157.349 66.2266 157.642C66.1445 157.935 66.1035 158.273 66.1035 158.656V158.902C66.1035 159.203 66.1445 159.486 66.2266 159.752C66.3125 160.013 66.4355 160.244 66.5957 160.443C66.7598 160.642 66.957 160.798 67.1875 160.912C67.4219 161.025 67.6875 161.082 67.9844 161.082C68.3672 161.082 68.6914 161.004 68.957 160.847C69.2227 160.691 69.4551 160.482 69.6543 160.22L70.3105 160.742C70.1738 160.949 70 161.146 69.7891 161.334C69.5781 161.521 69.3184 161.673 69.0098 161.791C68.7051 161.908 68.3438 161.966 67.9258 161.966Z" fill="white"/>
<rect width="216" height="29.6985" transform="translate(142 143)" fill="white" fill-opacity="0.9"/>
<path d="M342 159.021L346.95 154.071L348.364 155.485L342 161.849L335.636 155.485L337.05 154.071L342 159.021Z" fill="#0A1932"/>
<rect width="80" height="29.6985" transform="translate(368 143)" fill="white" fill-opacity="0.15"/>
<path d="M391.621 153.318V161.849H390.49V153.318H391.621ZM396.771 153.318L393.227 157.297L391.234 159.365L391.047 158.158L392.547 156.505L395.412 153.318H396.771ZM395.682 161.849L392.523 157.689L393.197 156.793L397.029 161.849H395.682ZM401.6 160.765V157.502C401.6 157.252 401.549 157.035 401.447 156.851C401.35 156.664 401.201 156.519 401.002 156.418C400.803 156.316 400.557 156.265 400.264 156.265C399.99 156.265 399.75 156.312 399.543 156.406C399.34 156.5 399.18 156.623 399.062 156.775C398.949 156.927 398.893 157.091 398.893 157.267H397.809C397.809 157.041 397.867 156.816 397.984 156.593C398.102 156.371 398.27 156.17 398.488 155.99C398.711 155.806 398.977 155.662 399.285 155.556C399.598 155.447 399.945 155.392 400.328 155.392C400.789 155.392 401.195 155.47 401.547 155.627C401.902 155.783 402.18 156.019 402.379 156.336C402.582 156.648 402.684 157.041 402.684 157.513V160.466C402.684 160.677 402.701 160.902 402.736 161.14C402.775 161.379 402.832 161.584 402.906 161.755V161.849H401.775C401.721 161.724 401.678 161.558 401.646 161.351C401.615 161.14 401.6 160.945 401.6 160.765ZM401.787 158.005L401.799 158.767H400.703C400.395 158.767 400.119 158.793 399.877 158.843C399.635 158.89 399.432 158.963 399.268 159.06C399.104 159.158 398.979 159.281 398.893 159.429C398.807 159.574 398.764 159.744 398.764 159.939C398.764 160.138 398.809 160.32 398.898 160.484C398.988 160.648 399.123 160.779 399.303 160.877C399.486 160.97 399.711 161.017 399.977 161.017C400.309 161.017 400.602 160.947 400.855 160.806C401.109 160.666 401.311 160.494 401.459 160.291C401.611 160.088 401.693 159.89 401.705 159.699L402.168 160.22C402.141 160.384 402.066 160.566 401.945 160.765C401.824 160.964 401.662 161.156 401.459 161.339C401.26 161.519 401.021 161.67 400.744 161.791C400.471 161.908 400.162 161.966 399.818 161.966C399.389 161.966 399.012 161.882 398.688 161.714C398.367 161.547 398.117 161.322 397.938 161.041C397.762 160.755 397.674 160.437 397.674 160.086C397.674 159.746 397.74 159.447 397.873 159.189C398.006 158.927 398.197 158.711 398.447 158.539C398.697 158.363 398.998 158.23 399.35 158.14C399.701 158.05 400.094 158.005 400.527 158.005H401.787ZM406.076 161.193L407.84 155.509H409L406.457 162.828C406.398 162.984 406.32 163.152 406.223 163.332C406.129 163.515 406.008 163.689 405.859 163.853C405.711 164.017 405.531 164.15 405.32 164.252C405.113 164.357 404.865 164.41 404.576 164.41C404.49 164.41 404.381 164.398 404.248 164.375C404.115 164.351 404.021 164.332 403.967 164.316L403.961 163.437C403.992 163.441 404.041 163.445 404.107 163.449C404.178 163.457 404.227 163.461 404.254 163.461C404.5 163.461 404.709 163.427 404.881 163.361C405.053 163.298 405.197 163.191 405.314 163.039C405.436 162.89 405.539 162.685 405.625 162.423L406.076 161.193ZM404.781 155.509L406.428 160.431L406.709 161.574L405.93 161.972L403.598 155.509H404.781ZM413.893 160.619V152.849H414.982V161.849H413.986L413.893 160.619ZM409.627 158.75V158.627C409.627 158.142 409.686 157.703 409.803 157.308C409.924 156.91 410.094 156.568 410.312 156.283C410.535 155.998 410.799 155.779 411.104 155.627C411.412 155.47 411.756 155.392 412.135 155.392C412.533 155.392 412.881 155.463 413.178 155.603C413.479 155.74 413.732 155.941 413.939 156.207C414.15 156.468 414.316 156.785 414.438 157.156C414.559 157.527 414.643 157.947 414.689 158.416V158.955C414.646 159.42 414.562 159.838 414.438 160.209C414.316 160.58 414.15 160.896 413.939 161.158C413.732 161.42 413.479 161.621 413.178 161.761C412.877 161.898 412.525 161.966 412.123 161.966C411.752 161.966 411.412 161.886 411.104 161.726C410.799 161.566 410.535 161.341 410.312 161.052C410.094 160.763 409.924 160.423 409.803 160.033C409.686 159.638 409.627 159.211 409.627 158.75ZM410.717 158.627V158.75C410.717 159.066 410.748 159.363 410.811 159.64C410.877 159.918 410.979 160.162 411.115 160.373C411.252 160.584 411.426 160.75 411.637 160.871C411.848 160.988 412.1 161.047 412.393 161.047C412.752 161.047 413.047 160.97 413.277 160.818C413.512 160.666 413.699 160.464 413.84 160.214C413.98 159.964 414.09 159.693 414.168 159.4V157.988C414.121 157.773 414.053 157.566 413.963 157.367C413.877 157.164 413.764 156.984 413.623 156.828C413.486 156.668 413.316 156.541 413.113 156.447C412.914 156.353 412.678 156.306 412.404 156.306C412.107 156.306 411.852 156.369 411.637 156.494C411.426 156.615 411.252 156.783 411.115 156.998C410.979 157.209 410.877 157.455 410.811 157.736C410.748 158.013 410.717 158.31 410.717 158.627ZM419.301 161.966C418.859 161.966 418.459 161.892 418.1 161.744C417.744 161.591 417.438 161.379 417.18 161.105C416.926 160.832 416.73 160.507 416.594 160.132C416.457 159.757 416.389 159.347 416.389 158.902V158.656C416.389 158.14 416.465 157.681 416.617 157.279C416.77 156.873 416.977 156.529 417.238 156.248C417.5 155.966 417.797 155.754 418.129 155.609C418.461 155.464 418.805 155.392 419.16 155.392C419.613 155.392 420.004 155.47 420.332 155.627C420.664 155.783 420.936 156.002 421.146 156.283C421.357 156.56 421.514 156.888 421.615 157.267C421.717 157.642 421.768 158.052 421.768 158.498V158.984H417.033V158.099H420.684V158.017C420.668 157.736 420.609 157.463 420.508 157.197C420.41 156.931 420.254 156.713 420.039 156.541C419.824 156.369 419.531 156.283 419.16 156.283C418.914 156.283 418.688 156.336 418.48 156.441C418.273 156.543 418.096 156.695 417.947 156.898C417.799 157.101 417.684 157.349 417.602 157.642C417.52 157.935 417.479 158.273 417.479 158.656V158.902C417.479 159.203 417.52 159.486 417.602 159.752C417.688 160.013 417.811 160.244 417.971 160.443C418.135 160.642 418.332 160.798 418.562 160.912C418.797 161.025 419.062 161.082 419.359 161.082C419.742 161.082 420.066 161.004 420.332 160.847C420.598 160.691 420.83 160.482 421.029 160.22L421.686 160.742C421.549 160.949 421.375 161.146 421.164 161.334C420.953 161.521 420.693 161.673 420.385 161.791C420.08 161.908 419.719 161.966 419.301 161.966ZM425.688 155.509V156.341H422.26V155.509H425.688ZM423.42 153.968H424.504V160.279C424.504 160.494 424.537 160.656 424.604 160.765C424.67 160.875 424.756 160.947 424.861 160.982C424.967 161.017 425.08 161.035 425.201 161.035C425.291 161.035 425.385 161.027 425.482 161.011C425.584 160.992 425.66 160.976 425.711 160.964L425.717 161.849C425.631 161.877 425.518 161.902 425.377 161.925C425.24 161.953 425.074 161.966 424.879 161.966C424.613 161.966 424.369 161.914 424.146 161.808C423.924 161.703 423.746 161.527 423.613 161.281C423.484 161.031 423.42 160.695 423.42 160.273V153.968Z" fill="white"/>
<rect width="140" height="28" transform="translate(308 188.698)" fill="white" fill-opacity="0.15"/>
<path d="M335.244 205.404L337.758 198.167H338.982L335.824 206.698H334.951L335.244 205.404ZM332.895 198.167L335.385 205.404L335.695 206.698H334.822L331.67 198.167H332.895ZM343.436 205.615V202.351C343.436 202.101 343.385 201.884 343.283 201.7C343.186 201.513 343.037 201.368 342.838 201.267C342.639 201.165 342.393 201.115 342.1 201.115C341.826 201.115 341.586 201.161 341.379 201.255C341.176 201.349 341.016 201.472 340.898 201.624C340.785 201.777 340.729 201.941 340.729 202.116H339.645C339.645 201.89 339.703 201.665 339.82 201.443C339.938 201.22 340.105 201.019 340.324 200.839C340.547 200.656 340.812 200.511 341.121 200.406C341.434 200.296 341.781 200.241 342.164 200.241C342.625 200.241 343.031 200.32 343.383 200.476C343.738 200.632 344.016 200.868 344.215 201.185C344.418 201.497 344.52 201.89 344.52 202.363V205.316C344.52 205.527 344.537 205.751 344.572 205.99C344.611 206.228 344.668 206.433 344.742 206.605V206.698H343.611C343.557 206.573 343.514 206.407 343.482 206.2C343.451 205.99 343.436 205.794 343.436 205.615ZM343.623 202.855L343.635 203.616H342.539C342.23 203.616 341.955 203.642 341.713 203.693C341.471 203.74 341.268 203.812 341.104 203.909C340.939 204.007 340.814 204.13 340.729 204.279C340.643 204.423 340.6 204.593 340.6 204.788C340.6 204.988 340.645 205.169 340.734 205.333C340.824 205.497 340.959 205.628 341.139 205.726C341.322 205.82 341.547 205.866 341.812 205.866C342.145 205.866 342.438 205.796 342.691 205.656C342.945 205.515 343.146 205.343 343.295 205.14C343.447 204.937 343.529 204.74 343.541 204.548L344.004 205.07C343.977 205.234 343.902 205.415 343.781 205.615C343.66 205.814 343.498 206.005 343.295 206.189C343.096 206.368 342.857 206.519 342.58 206.64C342.307 206.757 341.998 206.816 341.654 206.816C341.225 206.816 340.848 206.732 340.523 206.564C340.203 206.396 339.953 206.171 339.773 205.89C339.598 205.605 339.51 205.286 339.51 204.935C339.51 204.595 339.576 204.296 339.709 204.038C339.842 203.777 340.033 203.56 340.283 203.388C340.533 203.212 340.834 203.079 341.186 202.99C341.537 202.9 341.93 202.855 342.363 202.855H343.623ZM347.314 197.698V206.698H346.225V197.698H347.314ZM351.188 200.359L348.422 203.318L346.875 204.923L346.787 203.769L347.895 202.445L349.863 200.359H351.188ZM350.197 206.698L347.936 203.675L348.498 202.708L351.475 206.698H350.197ZM353.484 200.359V206.698H352.395V200.359H353.484ZM352.312 198.677C352.312 198.501 352.365 198.353 352.471 198.232C352.58 198.111 352.74 198.05 352.951 198.05C353.158 198.05 353.316 198.111 353.426 198.232C353.539 198.353 353.596 198.501 353.596 198.677C353.596 198.845 353.539 198.99 353.426 199.111C353.316 199.228 353.158 199.286 352.951 199.286C352.74 199.286 352.58 199.228 352.471 199.111C352.365 198.99 352.312 198.845 352.312 198.677ZM357.879 200.359V201.191H354.451V200.359H357.879ZM355.611 198.818H356.695V205.128C356.695 205.343 356.729 205.505 356.795 205.615C356.861 205.724 356.947 205.796 357.053 205.831C357.158 205.866 357.271 205.884 357.393 205.884C357.482 205.884 357.576 205.876 357.674 205.861C357.775 205.841 357.852 205.825 357.902 205.814L357.908 206.698C357.822 206.726 357.709 206.751 357.568 206.775C357.432 206.802 357.266 206.816 357.07 206.816C356.805 206.816 356.561 206.763 356.338 206.657C356.115 206.552 355.938 206.376 355.805 206.13C355.676 205.88 355.611 205.544 355.611 205.122V198.818ZM360.328 197.698V206.698H359.238V197.698H360.328ZM364.699 206.816C364.258 206.816 363.857 206.741 363.498 206.593C363.143 206.441 362.836 206.228 362.578 205.954C362.324 205.681 362.129 205.357 361.992 204.982C361.855 204.607 361.787 204.197 361.787 203.751V203.505C361.787 202.99 361.863 202.531 362.016 202.128C362.168 201.722 362.375 201.378 362.637 201.097C362.898 200.816 363.195 200.603 363.527 200.458C363.859 200.314 364.203 200.241 364.559 200.241C365.012 200.241 365.402 200.32 365.73 200.476C366.062 200.632 366.334 200.851 366.545 201.132C366.756 201.409 366.912 201.738 367.014 202.116C367.115 202.491 367.166 202.902 367.166 203.347V203.833H362.432V202.948H366.082V202.866C366.066 202.585 366.008 202.312 365.906 202.046C365.809 201.781 365.652 201.562 365.438 201.39C365.223 201.218 364.93 201.132 364.559 201.132C364.312 201.132 364.086 201.185 363.879 201.29C363.672 201.392 363.494 201.544 363.346 201.747C363.197 201.95 363.082 202.198 363 202.491C362.918 202.784 362.877 203.122 362.877 203.505V203.751C362.877 204.052 362.918 204.335 363 204.601C363.086 204.863 363.209 205.093 363.369 205.292C363.533 205.491 363.73 205.648 363.961 205.761C364.195 205.874 364.461 205.931 364.758 205.931C365.141 205.931 365.465 205.853 365.73 205.697C365.996 205.54 366.229 205.331 366.428 205.07L367.084 205.591C366.947 205.798 366.773 205.995 366.562 206.183C366.352 206.37 366.092 206.523 365.783 206.64C365.479 206.757 365.117 206.816 364.699 206.816ZM369.516 201.355V206.698H368.432V200.359H369.486L369.516 201.355ZM371.496 200.323L371.49 201.331C371.4 201.312 371.314 201.3 371.232 201.296C371.154 201.288 371.064 201.284 370.963 201.284C370.713 201.284 370.492 201.323 370.301 201.402C370.109 201.48 369.947 201.589 369.814 201.73C369.682 201.87 369.576 202.038 369.498 202.234C369.424 202.425 369.375 202.636 369.352 202.866L369.047 203.042C369.047 202.659 369.084 202.3 369.158 201.964C369.236 201.628 369.355 201.331 369.516 201.073C369.676 200.812 369.879 200.609 370.125 200.464C370.375 200.316 370.672 200.241 371.016 200.241C371.094 200.241 371.184 200.251 371.285 200.271C371.387 200.286 371.457 200.304 371.496 200.323ZM373.676 200.359V206.698H372.586V200.359H373.676ZM372.504 198.677C372.504 198.501 372.557 198.353 372.662 198.232C372.771 198.111 372.932 198.05 373.143 198.05C373.35 198.05 373.508 198.111 373.617 198.232C373.73 198.353 373.787 198.501 373.787 198.677C373.787 198.845 373.73 198.99 373.617 199.111C373.508 199.228 373.35 199.286 373.143 199.286C372.932 199.286 372.771 199.228 372.662 199.111C372.557 198.99 372.504 198.845 372.504 198.677ZM384.861 202.45V205.573C384.756 205.73 384.588 205.906 384.357 206.101C384.127 206.292 383.809 206.46 383.402 206.605C383 206.745 382.48 206.816 381.844 206.816C381.324 206.816 380.846 206.726 380.408 206.546C379.975 206.363 379.598 206.097 379.277 205.749C378.961 205.398 378.715 204.972 378.539 204.472C378.367 203.968 378.281 203.398 378.281 202.761V202.099C378.281 201.462 378.355 200.894 378.504 200.394C378.656 199.894 378.879 199.47 379.172 199.122C379.465 198.771 379.824 198.505 380.25 198.325C380.676 198.142 381.164 198.05 381.715 198.05C382.367 198.05 382.912 198.163 383.35 198.39C383.791 198.613 384.135 198.921 384.381 199.316C384.631 199.71 384.791 200.159 384.861 200.663H383.73C383.68 200.355 383.578 200.073 383.426 199.82C383.277 199.566 383.064 199.363 382.787 199.21C382.51 199.054 382.152 198.976 381.715 198.976C381.32 198.976 380.979 199.048 380.689 199.193C380.4 199.337 380.162 199.544 379.975 199.814C379.787 200.083 379.646 200.409 379.553 200.792C379.463 201.175 379.418 201.607 379.418 202.087V202.761C379.418 203.253 379.475 203.693 379.588 204.079C379.705 204.466 379.871 204.796 380.086 205.07C380.301 205.339 380.557 205.544 380.854 205.685C381.154 205.825 381.486 205.896 381.85 205.896C382.252 205.896 382.578 205.863 382.828 205.796C383.078 205.726 383.273 205.644 383.414 205.55C383.555 205.452 383.662 205.361 383.736 205.275V203.365H381.762V202.45H384.861ZM390.451 205.234V200.359H391.541V206.698H390.504L390.451 205.234ZM390.656 203.898L391.107 203.886C391.107 204.308 391.062 204.698 390.973 205.058C390.887 205.413 390.746 205.722 390.551 205.984C390.355 206.245 390.1 206.45 389.783 206.599C389.467 206.743 389.082 206.816 388.629 206.816C388.32 206.816 388.037 206.771 387.779 206.681C387.525 206.591 387.307 206.452 387.123 206.265C386.939 206.077 386.797 205.833 386.695 205.532C386.598 205.232 386.549 204.87 386.549 204.448V200.359H387.633V204.46C387.633 204.745 387.664 204.982 387.727 205.169C387.793 205.353 387.881 205.499 387.99 205.609C388.104 205.714 388.229 205.788 388.365 205.831C388.506 205.874 388.65 205.896 388.799 205.896C389.26 205.896 389.625 205.808 389.895 205.632C390.164 205.452 390.357 205.212 390.475 204.911C390.596 204.607 390.656 204.269 390.656 203.898ZM387.182 198.665C387.182 198.49 387.236 198.341 387.346 198.22C387.455 198.099 387.613 198.038 387.82 198.038C388.031 198.038 388.191 198.099 388.301 198.22C388.41 198.341 388.465 198.49 388.465 198.665C388.465 198.833 388.41 198.978 388.301 199.099C388.191 199.216 388.031 199.275 387.82 199.275C387.613 199.275 387.455 199.216 387.346 199.099C387.236 198.978 387.182 198.833 387.182 198.665ZM389.707 198.677C389.707 198.501 389.76 198.353 389.865 198.232C389.975 198.111 390.135 198.05 390.346 198.05C390.553 198.05 390.711 198.111 390.82 198.232C390.934 198.353 390.99 198.501 390.99 198.677C390.99 198.845 390.934 198.99 390.82 199.111C390.711 199.228 390.553 199.286 390.346 199.286C390.135 199.286 389.975 199.228 389.865 199.111C389.76 198.99 389.707 198.845 389.707 198.677ZM394.277 201.712V206.698H393.193V200.359H394.219L394.277 201.712ZM394.02 203.288L393.568 203.271C393.572 202.837 393.637 202.437 393.762 202.07C393.887 201.698 394.062 201.376 394.289 201.103C394.516 200.829 394.785 200.618 395.098 200.47C395.414 200.318 395.764 200.241 396.146 200.241C396.459 200.241 396.74 200.284 396.99 200.37C397.24 200.452 397.453 200.585 397.629 200.769C397.809 200.952 397.945 201.191 398.039 201.484C398.133 201.773 398.18 202.126 398.18 202.544V206.698H397.09V202.532C397.09 202.2 397.041 201.935 396.943 201.736C396.846 201.532 396.703 201.386 396.516 201.296C396.328 201.202 396.098 201.156 395.824 201.156C395.555 201.156 395.309 201.212 395.086 201.325C394.867 201.439 394.678 201.595 394.518 201.794C394.361 201.993 394.238 202.222 394.148 202.48C394.062 202.734 394.02 203.003 394.02 203.288ZM402.363 205.925C402.621 205.925 402.859 205.872 403.078 205.767C403.297 205.661 403.477 205.517 403.617 205.333C403.758 205.146 403.838 204.933 403.857 204.695H404.889C404.869 205.07 404.742 205.419 404.508 205.743C404.277 206.064 403.975 206.323 403.6 206.523C403.225 206.718 402.812 206.816 402.363 206.816C401.887 206.816 401.471 206.732 401.115 206.564C400.764 206.396 400.471 206.165 400.236 205.872C400.006 205.579 399.832 205.243 399.715 204.865C399.602 204.482 399.545 204.077 399.545 203.652V203.406C399.545 202.98 399.602 202.577 399.715 202.198C399.832 201.816 400.006 201.478 400.236 201.185C400.471 200.892 400.764 200.661 401.115 200.493C401.471 200.325 401.887 200.241 402.363 200.241C402.859 200.241 403.293 200.343 403.664 200.546C404.035 200.745 404.326 201.019 404.537 201.366C404.752 201.71 404.869 202.101 404.889 202.538H403.857C403.838 202.277 403.764 202.04 403.635 201.829C403.51 201.618 403.338 201.45 403.119 201.325C402.904 201.197 402.652 201.132 402.363 201.132C402.031 201.132 401.752 201.198 401.525 201.331C401.303 201.46 401.125 201.636 400.992 201.859C400.863 202.077 400.77 202.322 400.711 202.591C400.656 202.857 400.629 203.128 400.629 203.406V203.652C400.629 203.929 400.656 204.202 400.711 204.472C400.766 204.741 400.857 204.986 400.986 205.204C401.119 205.423 401.297 205.599 401.52 205.732C401.746 205.861 402.027 205.925 402.363 205.925ZM408.738 206.816C408.297 206.816 407.896 206.741 407.537 206.593C407.182 206.441 406.875 206.228 406.617 205.954C406.363 205.681 406.168 205.357 406.031 204.982C405.895 204.607 405.826 204.197 405.826 203.751V203.505C405.826 202.99 405.902 202.531 406.055 202.128C406.207 201.722 406.414 201.378 406.676 201.097C406.938 200.816 407.234 200.603 407.566 200.458C407.898 200.314 408.242 200.241 408.598 200.241C409.051 200.241 409.441 200.32 409.77 200.476C410.102 200.632 410.373 200.851 410.584 201.132C410.795 201.409 410.951 201.738 411.053 202.116C411.154 202.491 411.205 202.902 411.205 203.347V203.833H406.471V202.948H410.121V202.866C410.105 202.585 410.047 202.312 409.945 202.046C409.848 201.781 409.691 201.562 409.477 201.39C409.262 201.218 408.969 201.132 408.598 201.132C408.352 201.132 408.125 201.185 407.918 201.29C407.711 201.392 407.533 201.544 407.385 201.747C407.236 201.95 407.121 202.198 407.039 202.491C406.957 202.784 406.916 203.122 406.916 203.505V203.751C406.916 204.052 406.957 204.335 407.039 204.601C407.125 204.863 407.248 205.093 407.408 205.292C407.572 205.491 407.77 205.648 408 205.761C408.234 205.874 408.5 205.931 408.797 205.931C409.18 205.931 409.504 205.853 409.77 205.697C410.035 205.54 410.268 205.331 410.467 205.07L411.123 205.591C410.986 205.798 410.812 205.995 410.602 206.183C410.391 206.37 410.131 206.523 409.822 206.64C409.518 206.757 409.156 206.816 408.738 206.816ZM413.648 197.698V206.698H412.559V197.698H413.648ZM416.566 197.698V206.698H415.477V197.698H416.566ZM420.938 206.816C420.496 206.816 420.096 206.741 419.736 206.593C419.381 206.441 419.074 206.228 418.816 205.954C418.562 205.681 418.367 205.357 418.23 204.982C418.094 204.607 418.025 204.197 418.025 203.751V203.505C418.025 202.99 418.102 202.531 418.254 202.128C418.406 201.722 418.613 201.378 418.875 201.097C419.137 200.816 419.434 200.603 419.766 200.458C420.098 200.314 420.441 200.241 420.797 200.241C421.25 200.241 421.641 200.32 421.969 200.476C422.301 200.632 422.572 200.851 422.783 201.132C422.994 201.409 423.15 201.738 423.252 202.116C423.354 202.491 423.404 202.902 423.404 203.347V203.833H418.67V202.948H422.32V202.866C422.305 202.585 422.246 202.312 422.145 202.046C422.047 201.781 421.891 201.562 421.676 201.39C421.461 201.218 421.168 201.132 420.797 201.132C420.551 201.132 420.324 201.185 420.117 201.29C419.91 201.392 419.732 201.544 419.584 201.747C419.436 201.95 419.32 202.198 419.238 202.491C419.156 202.784 419.115 203.122 419.115 203.505V203.751C419.115 204.052 419.156 204.335 419.238 204.601C419.324 204.863 419.447 205.093 419.607 205.292C419.771 205.491 419.969 205.648 420.199 205.761C420.434 205.874 420.699 205.931 420.996 205.931C421.379 205.931 421.703 205.853 421.969 205.697C422.234 205.54 422.467 205.331 422.666 205.07L423.322 205.591C423.186 205.798 423.012 205.995 422.801 206.183C422.59 206.37 422.33 206.523 422.021 206.64C421.717 206.757 421.355 206.816 420.938 206.816Z" fill="white"/>
<path d="M57.5371 249.391C57.5371 249.192 57.5059 249.016 57.4434 248.864C57.3848 248.708 57.2793 248.567 57.127 248.442C56.9785 248.317 56.7715 248.198 56.5059 248.085C56.2441 247.972 55.9121 247.856 55.5098 247.739C55.0879 247.614 54.707 247.475 54.3672 247.323C54.0273 247.167 53.7363 246.989 53.4941 246.79C53.252 246.591 53.0664 246.362 52.9375 246.104C52.8086 245.847 52.7441 245.552 52.7441 245.22C52.7441 244.888 52.8125 244.581 52.9492 244.3C53.0859 244.018 53.2812 243.774 53.5352 243.567C53.793 243.356 54.0996 243.192 54.4551 243.075C54.8105 242.958 55.207 242.899 55.6445 242.899C56.2852 242.899 56.8281 243.022 57.2734 243.268C57.7227 243.511 58.0645 243.829 58.2988 244.224C58.5332 244.614 58.6504 245.032 58.6504 245.477H57.5254C57.5254 245.157 57.457 244.874 57.3203 244.628C57.1836 244.378 56.9766 244.182 56.6992 244.042C56.4219 243.897 56.0703 243.825 55.6445 243.825C55.2422 243.825 54.9102 243.886 54.6484 244.007C54.3867 244.128 54.1914 244.292 54.0625 244.499C53.9375 244.706 53.875 244.942 53.875 245.208C53.875 245.388 53.9121 245.552 53.9863 245.7C54.0645 245.845 54.1836 245.979 54.3438 246.104C54.5078 246.229 54.7148 246.345 54.9648 246.45C55.2188 246.556 55.5215 246.657 55.873 246.755C56.3574 246.891 56.7754 247.044 57.127 247.212C57.4785 247.38 57.7676 247.569 57.9941 247.78C58.2246 247.987 58.3945 248.224 58.5039 248.489C58.6172 248.751 58.6738 249.048 58.6738 249.38C58.6738 249.727 58.6035 250.042 58.4629 250.323C58.3223 250.604 58.1211 250.845 57.8594 251.044C57.5977 251.243 57.2832 251.397 56.916 251.507C56.5527 251.612 56.1465 251.665 55.6973 251.665C55.3027 251.665 54.9141 251.61 54.5312 251.501C54.1523 251.391 53.8066 251.227 53.4941 251.009C53.1855 250.79 52.9375 250.52 52.75 250.2C52.5664 249.876 52.4746 249.501 52.4746 249.075H53.5996C53.5996 249.368 53.6562 249.62 53.7695 249.831C53.8828 250.038 54.0371 250.21 54.2324 250.347C54.4316 250.483 54.6562 250.585 54.9062 250.651C55.1602 250.714 55.4238 250.745 55.6973 250.745C56.0918 250.745 56.4258 250.69 56.6992 250.581C56.9727 250.472 57.1797 250.315 57.3203 250.112C57.4648 249.909 57.5371 249.669 57.5371 249.391ZM63.6895 250.464V247.2C63.6895 246.95 63.6387 246.733 63.5371 246.55C63.4395 246.362 63.291 246.218 63.0918 246.116C62.8926 246.015 62.6465 245.964 62.3535 245.964C62.0801 245.964 61.8398 246.011 61.6328 246.104C61.4297 246.198 61.2695 246.321 61.1523 246.474C61.0391 246.626 60.9824 246.79 60.9824 246.966H59.8984C59.8984 246.739 59.957 246.515 60.0742 246.292C60.1914 246.069 60.3594 245.868 60.5781 245.688C60.8008 245.505 61.0664 245.36 61.375 245.255C61.6875 245.145 62.0352 245.091 62.418 245.091C62.8789 245.091 63.2852 245.169 63.6367 245.325C63.9922 245.481 64.2695 245.718 64.4688 246.034C64.6719 246.347 64.7734 246.739 64.7734 247.212V250.165C64.7734 250.376 64.791 250.6 64.8262 250.839C64.8652 251.077 64.9219 251.282 64.9961 251.454V251.548H63.8652C63.8105 251.423 63.7676 251.257 63.7363 251.05C63.7051 250.839 63.6895 250.643 63.6895 250.464ZM63.877 247.704L63.8887 248.466H62.793C62.4844 248.466 62.209 248.491 61.9668 248.542C61.7246 248.589 61.5215 248.661 61.3574 248.759C61.1934 248.856 61.0684 248.979 60.9824 249.128C60.8965 249.272 60.8535 249.442 60.8535 249.638C60.8535 249.837 60.8984 250.018 60.9883 250.182C61.0781 250.347 61.2129 250.477 61.3926 250.575C61.5762 250.669 61.8008 250.716 62.0664 250.716C62.3984 250.716 62.6914 250.645 62.9453 250.505C63.1992 250.364 63.4004 250.192 63.5488 249.989C63.7012 249.786 63.7832 249.589 63.7949 249.397L64.2578 249.919C64.2305 250.083 64.1562 250.265 64.0352 250.464C63.9141 250.663 63.752 250.854 63.5488 251.038C63.3496 251.218 63.1113 251.368 62.834 251.489C62.5605 251.606 62.252 251.665 61.9082 251.665C61.4785 251.665 61.1016 251.581 60.7773 251.413C60.457 251.245 60.207 251.02 60.0273 250.739C59.8516 250.454 59.7637 250.136 59.7637 249.784C59.7637 249.444 59.8301 249.145 59.9629 248.888C60.0957 248.626 60.2871 248.409 60.5371 248.237C60.7871 248.061 61.0879 247.929 61.4395 247.839C61.791 247.749 62.1836 247.704 62.6172 247.704H63.877ZM70.2168 250.464V247.2C70.2168 246.95 70.166 246.733 70.0645 246.55C69.9668 246.362 69.8184 246.218 69.6191 246.116C69.4199 246.015 69.1738 245.964 68.8809 245.964C68.6074 245.964 68.3672 246.011 68.1602 246.104C67.957 246.198 67.7969 246.321 67.6797 246.474C67.5664 246.626 67.5098 246.79 67.5098 246.966H66.4258C66.4258 246.739 66.4844 246.515 66.6016 246.292C66.7188 246.069 66.8867 245.868 67.1055 245.688C67.3281 245.505 67.5938 245.36 67.9023 245.255C68.2148 245.145 68.5625 245.091 68.9453 245.091C69.4062 245.091 69.8125 245.169 70.1641 245.325C70.5195 245.481 70.7969 245.718 70.9961 246.034C71.1992 246.347 71.3008 246.739 71.3008 247.212V250.165C71.3008 250.376 71.3184 250.6 71.3535 250.839C71.3926 251.077 71.4492 251.282 71.5234 251.454V251.548H70.3926C70.3379 251.423 70.2949 251.257 70.2637 251.05C70.2324 250.839 70.2168 250.643 70.2168 250.464ZM70.4043 247.704L70.416 248.466H69.3203C69.0117 248.466 68.7363 248.491 68.4941 248.542C68.252 248.589 68.0488 248.661 67.8848 248.759C67.7207 248.856 67.5957 248.979 67.5098 249.128C67.4238 249.272 67.3809 249.442 67.3809 249.638C67.3809 249.837 67.4258 250.018 67.5156 250.182C67.6055 250.347 67.7402 250.477 67.9199 250.575C68.1035 250.669 68.3281 250.716 68.5938 250.716C68.9258 250.716 69.2188 250.645 69.4727 250.505C69.7266 250.364 69.9277 250.192 70.0762 249.989C70.2285 249.786 70.3105 249.589 70.3223 249.397L70.7852 249.919C70.7578 250.083 70.6836 250.265 70.5625 250.464C70.4414 250.663 70.2793 250.854 70.0762 251.038C69.877 251.218 69.6387 251.368 69.3613 251.489C69.0879 251.606 68.7793 251.665 68.4355 251.665C68.0059 251.665 67.6289 251.581 67.3047 251.413C66.9844 251.245 66.7344 251.02 66.5547 250.739C66.3789 250.454 66.291 250.136 66.291 249.784C66.291 249.444 66.3574 249.145 66.4902 248.888C66.623 248.626 66.8145 248.409 67.0645 248.237C67.3145 248.061 67.6152 247.929 67.9668 247.839C68.3184 247.749 68.7109 247.704 69.1445 247.704H70.4043ZM75.6602 245.208V246.04H72.2324V245.208H75.6602ZM73.3926 243.667H74.4766V249.977C74.4766 250.192 74.5098 250.354 74.5762 250.464C74.6426 250.573 74.7285 250.645 74.834 250.681C74.9395 250.716 75.0527 250.733 75.1738 250.733C75.2637 250.733 75.3574 250.725 75.4551 250.71C75.5566 250.69 75.6328 250.675 75.6836 250.663L75.6895 251.548C75.6035 251.575 75.4902 251.6 75.3496 251.624C75.2129 251.651 75.0469 251.665 74.8516 251.665C74.5859 251.665 74.3418 251.612 74.1191 251.507C73.8965 251.401 73.7188 251.225 73.5859 250.979C73.457 250.729 73.3926 250.393 73.3926 249.972V243.667ZM80.4648 243.016L82.6797 247.3L84.9004 243.016H86.1836L83.2422 248.36V251.548H82.1113V248.36L79.1699 243.016H80.4648ZM86.4414 248.448V248.313C86.4414 247.856 86.5078 247.432 86.6406 247.042C86.7734 246.647 86.9648 246.306 87.2148 246.016C87.4648 245.724 87.7676 245.497 88.123 245.337C88.4785 245.173 88.877 245.091 89.3184 245.091C89.7637 245.091 90.1641 245.173 90.5195 245.337C90.8789 245.497 91.1836 245.724 91.4336 246.016C91.6875 246.306 91.8809 246.647 92.0137 247.042C92.1465 247.432 92.2129 247.856 92.2129 248.313V248.448C92.2129 248.905 92.1465 249.329 92.0137 249.72C91.8809 250.11 91.6875 250.452 91.4336 250.745C91.1836 251.034 90.8809 251.261 90.5254 251.425C90.1738 251.585 89.7754 251.665 89.3301 251.665C88.8848 251.665 88.4844 251.585 88.1289 251.425C87.7734 251.261 87.4688 251.034 87.2148 250.745C86.9648 250.452 86.7734 250.11 86.6406 249.72C86.5078 249.329 86.4414 248.905 86.4414 248.448ZM87.5254 248.313V248.448C87.5254 248.765 87.5625 249.063 87.6367 249.345C87.7109 249.622 87.8223 249.868 87.9707 250.083C88.123 250.298 88.3125 250.468 88.5391 250.593C88.7656 250.714 89.0293 250.774 89.3301 250.774C89.627 250.774 89.8867 250.714 90.1094 250.593C90.3359 250.468 90.5234 250.298 90.6719 250.083C90.8203 249.868 90.9316 249.622 91.0059 249.345C91.084 249.063 91.123 248.765 91.123 248.448V248.313C91.123 248.001 91.084 247.706 91.0059 247.429C90.9316 247.147 90.8184 246.899 90.666 246.684C90.5176 246.466 90.3301 246.294 90.1035 246.169C89.8809 246.044 89.6191 245.981 89.3184 245.981C89.0215 245.981 88.7598 246.044 88.5332 246.169C88.3105 246.294 88.123 246.466 87.9707 246.684C87.8223 246.899 87.7109 247.147 87.6367 247.429C87.5625 247.706 87.5254 248.001 87.5254 248.313ZM87.3848 243.515C87.3848 243.339 87.4395 243.19 87.5488 243.069C87.6582 242.948 87.8164 242.888 88.0234 242.888C88.2344 242.888 88.3945 242.948 88.5039 243.069C88.6133 243.19 88.668 243.339 88.668 243.515C88.668 243.682 88.6133 243.827 88.5039 243.948C88.3945 244.065 88.2344 244.124 88.0234 244.124C87.8164 244.124 87.6582 244.065 87.5488 243.948C87.4395 243.827 87.3848 243.682 87.3848 243.515ZM89.9102 243.526C89.9102 243.35 89.9629 243.202 90.0684 243.081C90.1777 242.96 90.3379 242.899 90.5488 242.899C90.7559 242.899 90.9141 242.96 91.0234 243.081C91.1367 243.202 91.1934 243.35 91.1934 243.526C91.1934 243.694 91.1367 243.839 91.0234 243.96C90.9141 244.077 90.7559 244.136 90.5488 244.136C90.3379 244.136 90.1777 244.077 90.0684 243.96C89.9629 243.839 89.9102 243.694 89.9102 243.526ZM94.6562 246.561V251.548H93.5723V245.208H94.5977L94.6562 246.561ZM94.3984 248.138L93.9473 248.12C93.9512 247.686 94.0156 247.286 94.1406 246.919C94.2656 246.548 94.4414 246.225 94.668 245.952C94.8945 245.679 95.1641 245.468 95.4766 245.319C95.793 245.167 96.1426 245.091 96.5254 245.091C96.8379 245.091 97.1191 245.134 97.3691 245.22C97.6191 245.302 97.832 245.434 98.0078 245.618C98.1875 245.802 98.3242 246.04 98.418 246.333C98.5117 246.622 98.5586 246.975 98.5586 247.393V251.548H97.4688V247.382C97.4688 247.05 97.4199 246.784 97.3223 246.585C97.2246 246.382 97.082 246.235 96.8945 246.145C96.707 246.052 96.4766 246.005 96.2031 246.005C95.9336 246.005 95.6875 246.061 95.4648 246.175C95.2461 246.288 95.0566 246.444 94.8965 246.643C94.7402 246.843 94.6172 247.071 94.5273 247.329C94.4414 247.583 94.3984 247.852 94.3984 248.138ZM104.084 250.083V245.208H105.174V251.548H104.137L104.084 250.083ZM104.289 248.747L104.74 248.735C104.74 249.157 104.695 249.548 104.605 249.907C104.52 250.263 104.379 250.571 104.184 250.833C103.988 251.095 103.732 251.3 103.416 251.448C103.1 251.593 102.715 251.665 102.262 251.665C101.953 251.665 101.67 251.62 101.412 251.53C101.158 251.44 100.939 251.302 100.756 251.114C100.572 250.927 100.43 250.682 100.328 250.382C100.23 250.081 100.182 249.72 100.182 249.298V245.208H101.266V249.309C101.266 249.595 101.297 249.831 101.359 250.018C101.426 250.202 101.514 250.349 101.623 250.458C101.736 250.563 101.861 250.638 101.998 250.681C102.139 250.724 102.283 250.745 102.432 250.745C102.893 250.745 103.258 250.657 103.527 250.481C103.797 250.302 103.99 250.061 104.107 249.761C104.229 249.456 104.289 249.118 104.289 248.747ZM100.814 243.515C100.814 243.339 100.869 243.19 100.979 243.069C101.088 242.948 101.246 242.888 101.453 242.888C101.664 242.888 101.824 242.948 101.934 243.069C102.043 243.19 102.098 243.339 102.098 243.515C102.098 243.682 102.043 243.827 101.934 243.948C101.824 244.065 101.664 244.124 101.453 244.124C101.246 244.124 101.088 244.065 100.979 243.948C100.869 243.827 100.814 243.682 100.814 243.515ZM103.34 243.526C103.34 243.35 103.393 243.202 103.498 243.081C103.607 242.96 103.768 242.899 103.979 242.899C104.186 242.899 104.344 242.96 104.453 243.081C104.566 243.202 104.623 243.35 104.623 243.526C104.623 243.694 104.566 243.839 104.453 243.96C104.344 244.077 104.186 244.136 103.979 244.136C103.768 244.136 103.607 244.077 103.498 243.96C103.393 243.839 103.34 243.694 103.34 243.526Z" fill="white"/>
<rect width="216" height="29.6985" transform="translate(142 232.698)" fill="white" fill-opacity="0.9"/>
<path d="M342 248.719L346.95 243.769L348.364 245.184L342 251.548L335.636 245.184L337.05 243.769L342 248.719Z" fill="#0A1932"/>
</svg>
